<svg width="40" height="40" viewBox="0 0 40 40" fill="none" xmlns="http://www.w3.org/2000/svg">
<path d="M19.95 31.6891C20.608 31.6891 21.1642 31.4619 21.6185 31.0076C22.0728 30.5532 22.3 29.9971 22.3 29.3391C22.3 28.6811 22.0728 28.1249 21.6185 27.6706C21.1642 27.2162 20.608 26.9891 19.95 26.9891C19.292 26.9891 18.7358 27.2162 18.2815 27.6706C17.8272 28.1249 17.6 28.6811 17.6 29.3391C17.6 29.9971 17.8272 30.5532 18.2815 31.0076C18.7358 31.4619 19.292 31.6891 19.95 31.6891ZM18.2 24.2391H21.7C21.7 23.1891 21.8292 22.3557 22.0875 21.7391C22.3458 21.1224 23.0333 20.2724 24.15 19.1891C25.0167 18.3557 25.6833 17.5516 26.15 16.7766C26.6167 16.0016 26.85 15.0891 26.85 14.0391C26.85 12.2207 26.1958 10.8244 24.8875 9.85006C23.5792 8.87606 22.0195 8.38906 20.2085 8.38906C18.3655 8.38906 16.87 8.86823 15.722 9.82656C14.574 10.7849 13.7667 11.9391 13.3 13.2891L16.4605 14.4891C16.6202 13.8891 16.9875 13.2557 17.5625 12.5891C18.1378 11.9224 19.017 11.5891 20.2 11.5891C21.2667 11.5891 22.0667 11.8807 22.6 12.4641C23.1333 13.0474 23.4 13.6891 23.4 14.3891C23.4 15.0557 23.2042 15.6724 22.8125 16.2391C22.4208 16.8057 21.9333 17.3391 21.35 17.8391C19.9333 19.0891 19.0542 20.0516 18.7125 20.7266C18.3708 21.4016 18.2 22.5724 18.2 24.2391ZM20 39.5391C17.303 39.5391 14.7685 39.0264 12.3965 38.0011C10.0248 36.9754 7.96167 35.5837 6.207 33.8261C4.45233 32.0681 3.0625 30.0042 2.0375 27.6346C1.0125 25.2652 0.5 22.7334 0.5 20.0391C0.5 17.3421 1.01267 14.8076 2.038 12.4356C3.06367 10.0639 4.45533 8.00073 6.213 6.24606C7.971 4.4914 10.0348 3.10156 12.4045 2.07656C14.7738 1.05156 17.3057 0.539062 20 0.539062C22.697 0.539062 25.2315 1.05173 27.6035 2.07706C29.9752 3.10273 32.0383 4.4944 33.793 6.25206C35.5477 8.01006 36.9375 10.0739 37.9625 12.4436C38.9875 14.8129 39.5 17.3447 39.5 20.0391C39.5 22.7361 38.9873 25.2706 37.962 27.6426C36.9363 30.0142 35.5447 32.0774 33.787 33.8321C32.029 35.5867 29.9652 36.9766 27.5955 38.0016C25.2262 39.0266 22.6943 39.5391 20 39.5391Z" fill="#0E70F6"/>
</svg>
