<svg width="96" height="96" viewBox="0 0 96 96" fill="none" xmlns="http://www.w3.org/2000/svg">
<mask id="mask0_253_234" style="mask-type:alpha" maskUnits="userSpaceOnUse" x="0" y="0" width="96" height="96">
<rect x="0.470947" y="0.868164" width="95.0582" height="95.0582" fill="#D9D9D9"/>
</mask>
<g mask="url(#mask0_253_234)">
<path d="M48 84.0443L0.470947 36.5152C6.74215 30.112 13.987 25.2106 22.2056 21.8109C30.4242 18.4113 39.0223 16.7114 48 16.7114C56.9777 16.7114 65.5759 18.4113 73.7945 21.8109C82.013 25.2106 89.2579 30.112 95.5291 36.5152L91.5684 40.476C89.72 38.0995 87.4261 36.1851 84.6865 34.7329C81.947 33.2806 78.96 32.5545 75.7253 32.5545C70.2463 32.5545 65.5759 34.4853 61.7142 38.3471C57.8524 42.2088 55.9215 46.8792 55.9215 52.3582C55.9215 55.5929 56.6477 58.5799 58.1 61.3195C59.5522 64.059 61.4666 66.3529 63.8431 68.2013L48 84.0443Z" fill="#0E70F6"/>
</g>
<path d="M72.8044 78.8459C73.6295 79.6711 74.6032 80.0836 75.7254 80.0836C76.8476 80.0836 77.8213 79.6711 78.6465 78.8459C79.4716 78.0208 79.8842 77.0471 79.8842 75.9249C79.8842 74.8026 79.4716 73.829 78.6465 73.0038C77.8213 72.1786 76.8476 71.7661 75.7254 71.7661C74.6032 71.7661 73.6295 72.1786 72.8044 73.0038C71.9792 73.829 71.5666 74.8026 71.5666 75.9249C71.5666 77.0471 71.9792 78.0208 72.8044 78.8459Z" fill="white"/>
<path d="M73.745 61.5671C73.0849 62.9534 72.7548 64.9007 72.7548 67.4092H78.894C78.894 65.4949 79.0921 64.0591 79.4881 63.1019C79.8842 62.1447 80.8744 60.874 82.4587 59.2897C84.3071 57.4413 85.5613 55.923 86.2214 54.7348C86.8815 53.5466 87.2116 52.1933 87.2116 50.675C87.2116 47.7045 86.1884 45.262 84.142 43.3476C82.0956 41.4333 79.4551 40.4761 76.2205 40.4761C73.382 40.4761 70.9065 41.2352 68.7941 42.7535C66.6817 44.2718 65.2294 46.2852 64.4373 48.7937L69.7843 50.9721C70.3124 49.4538 71.1705 48.2491 72.3588 47.3579C73.547 46.4667 74.8342 46.0211 76.2205 46.0211C77.7388 46.0211 78.96 46.4667 79.8842 47.3579C80.8084 48.2491 81.2705 49.2888 81.2705 50.477C81.2705 51.5332 81.0724 52.4079 80.6764 53.101C80.2803 53.7941 79.3891 54.8338 78.0029 56.2201C75.8244 58.3985 74.4052 60.1808 73.745 61.5671Z" fill="white"/>
</svg>
