<svg width="96" height="96" viewBox="0 0 96 96" fill="none" xmlns="http://www.w3.org/2000/svg">
<mask id="mask0_255_235" style="mask-type:alpha" maskUnits="userSpaceOnUse" x="0" y="0" width="96" height="96">
<rect x="0.470947" y="0.868164" width="95.0582" height="95.0582" fill="#D9D9D9"/>
</mask>
<g mask="url(#mask0_255_235)">
<path d="M48 88.0047C42.521 88.0047 37.372 86.965 32.5531 84.8856C27.7342 82.8062 23.5424 79.9842 19.9777 76.4195C16.413 72.8548 13.591 68.663 11.5116 63.8441C9.43215 59.0252 8.39246 53.8762 8.39246 48.3971C8.39246 42.9181 9.43215 37.7691 11.5116 32.9502C13.591 28.1312 16.413 23.9394 19.9777 20.3748C23.5424 16.8101 27.7342 13.988 32.5531 11.9086C37.372 9.82925 42.521 8.78955 48 8.78955C52.2908 8.78955 56.3506 9.41667 60.1794 10.6709C64.0081 11.9252 67.5398 13.6745 70.7744 15.9189L65.0313 21.761C62.5228 20.1767 59.8493 18.939 57.0107 18.0478C54.1722 17.1567 51.1686 16.7111 48 16.7111C39.2203 16.7111 31.7444 19.7972 25.5722 25.9693C19.4001 32.1415 16.314 39.6174 16.314 48.3971C16.314 57.1768 19.4001 64.6527 25.5722 70.8249C31.7444 76.9971 39.2203 80.0832 48 80.0832C56.7797 80.0832 64.2556 76.9971 70.4278 70.8249C76.6 64.6527 79.6861 57.1768 79.6861 48.3971C79.6861 47.2089 79.6201 46.0207 79.488 44.8324C79.356 43.6442 79.158 42.489 78.8939 41.3668L85.3302 34.9305C86.0563 37.0429 86.6174 39.2214 87.0135 41.4658C87.4096 43.7102 87.6076 46.0207 87.6076 48.3971C87.6076 53.8762 86.5679 59.0252 84.4885 63.8441C82.4091 68.663 79.5871 72.8548 76.0224 76.4195C72.4577 79.9842 68.2659 82.8062 63.447 84.8856C58.6281 86.965 53.4791 88.0047 48 88.0047Z" fill="#0E70F6"/>
</g>
<path d="M25.6218 49.7838L42.455 66.617L87.6077 21.3654L82.0626 15.8203L42.455 55.5269L31.1669 44.2387L25.6218 49.7838Z" fill="white"/>
</svg>
