<svg width="24" height="25" viewBox="0 0 24 25" fill="none" xmlns="http://www.w3.org/2000/svg">
<mask id="mask0_147_239" style="mask-type:alpha" maskUnits="userSpaceOnUse" x="0" y="0" width="24" height="25">
<rect y="0.915771" width="24" height="24" fill="#D9D9D9"/>
</mask>
<g mask="url(#mask0_147_239)">
<path d="M5 21.9158C4.45 21.9158 3.97917 21.7199 3.5875 21.3283C3.19583 20.9366 3 20.4658 3 19.9158V5.91577C3 5.36577 3.19583 4.89494 3.5875 4.50327C3.97917 4.1116 4.45 3.91577 5 3.91577H19C19.55 3.91577 20.0208 4.1116 20.4125 4.50327C20.8042 4.89494 21 5.36577 21 5.91577V19.9158C21 20.4658 20.8042 20.9366 20.4125 21.3283C20.0208 21.7199 19.55 21.9158 19 21.9158H5ZM5 19.9158H19V5.91577H5V19.9158Z" fill="white"/>
</g>
</svg>
