<svg width="25" height="25" viewBox="0 0 25 25" fill="none" xmlns="http://www.w3.org/2000/svg">
<mask id="mask0_145_180" style="mask-type:alpha" maskUnits="userSpaceOnUse" x="0" y="0" width="25" height="25">
<rect x="0.62207" y="0.787109" width="24" height="24" fill="#D9D9D9"/>
</mask>
<g mask="url(#mask0_145_180)">
<path d="M12.6221 21.7871C11.9221 21.7871 11.3304 21.5454 10.8471 21.0621C10.3637 20.5788 10.1221 19.9871 10.1221 19.2871C10.1221 18.5871 10.3637 17.9954 10.8471 17.5121C11.3304 17.0288 11.9221 16.7871 12.6221 16.7871C13.3221 16.7871 13.9137 17.0288 14.3971 17.5121C14.8804 17.9954 15.1221 18.5871 15.1221 19.2871C15.1221 19.9871 14.8804 20.5788 14.3971 21.0621C13.9137 21.5454 13.3221 21.7871 12.6221 21.7871ZM6.97207 16.1371L4.87207 13.9871C5.8554 13.0038 7.00957 12.2246 8.33457 11.6496C9.65957 11.0746 11.0887 10.7871 12.6221 10.7871C14.1554 10.7871 15.5846 11.0788 16.9096 11.6621C18.2346 12.2454 19.3887 13.0371 20.3721 14.0371L18.2721 16.1371C17.5387 15.4038 16.6887 14.8288 15.7221 14.4121C14.7554 13.9954 13.7221 13.7871 12.6221 13.7871C11.5221 13.7871 10.4887 13.9954 9.52207 14.4121C8.5554 14.8288 7.7054 15.4038 6.97207 16.1371ZM2.72207 11.8871L0.62207 9.78711C2.1554 8.22044 3.94707 6.99544 5.99707 6.11211C8.04707 5.22878 10.2554 4.78711 12.6221 4.78711C14.9887 4.78711 17.1971 5.22878 19.2471 6.11211C21.2971 6.99544 23.0887 8.22044 24.6221 9.78711L22.5221 11.8871C21.2387 10.6038 19.7512 9.59961 18.0596 8.87461C16.3679 8.14961 14.5554 7.78711 12.6221 7.78711C10.6887 7.78711 8.87624 8.14961 7.18457 8.87461C5.4929 9.59961 4.0054 10.6038 2.72207 11.8871Z" fill="#FAFAFA"/>
</g>
</svg>
